HIERARCHY
ROOT Hips
{
  OFFSET 112.667 101.931 -48.5519
  CHANNELS 6 Xposition Yposition Zposition Zrotation Xrotation Yrotation
  JOINT RightUpLeg
  {
    OFFSET -8.9458 -8.66707 0.101652
    CHANNELS 3 Zrotation Xrotation Yrotation
    JOINT RightLeg
    {
      OFFSET 0 -44.4227 1.3727
      CHANNELS 3 Zrotation Xrotation Yrotation
      JOINT RightFoot
      {
        OFFSET 0.253549 -42.0924 -1.46059
        CHANNELS 3 Zrotation Xrotation Yrotation
        JOINT RightToes
        {
          OFFSET 0.04 -4.41509 8.4991
          CHANNELS 3 Zrotation Xrotation Yrotation
          End Site
          {
            OFFSET -0.08 -0.137448 9.77979
          }
        }
      }
    }
  }
  JOINT Spine
  {
    OFFSET 0 11.8905 0
    CHANNELS 3 Zrotation Xrotation Yrotation
    JOINT Spine1
    {
      OFFSET 0 25.6574 0.127663
      CHANNELS 3 Zrotation Xrotation Yrotation
      JOINT HEad
      {
        OFFSET 0 8.73416 0.011341
        CHANNELS 3 Zrotation Xrotation Yrotation
        End Site
        {
          OFFSET -0.29 12.7742 2.51395
        }
      }
      JOINT LeftShoulder1
      {
        OFFSET 8.99 -0.362252 -0.22
        CHANNELS 3 Zrotation Xrotation Yrotation
        JOINT LeftArm
        {
          OFFSET 10.2827 -0.00338 0.322123
          CHANNELS 3 Zrotation Xrotation Yrotation
          JOINT LeftForeArm
          {
            OFFSET 32.7669 0.099144 -1.42434
            CHANNELS 3 Zrotation Xrotation Yrotation
            JOINT LeftHand
            {
              OFFSET 27.5643 0.085362 1.02216
              CHANNELS 3 Zrotation Xrotation Yrotation
              End Site
              {
                OFFSET 16.7443 -0.6 1.50291
              }
            }
          }
        }
      }
      JOINT RightShoulder
      {
        OFFSET -8.99 -0.362252 -0.22
        CHANNELS 3 Zrotation Xrotation Yrotation
        JOINT RightArm
        {
          OFFSET -10.2827 -0.00338 0.322123
          CHANNELS 3 Zrotation Xrotation Yrotation
          JOINT RightForeArm
          {
            OFFSET -32.8971 0.099144 -1.42434
            CHANNELS 3 Zrotation Xrotation Yrotation
            JOINT RightHand
            {
              OFFSET -27.4921 0.085362 1.02216
              CHANNELS 3 Zrotation Xrotation Yrotation
              End Site
              {
                OFFSET -16.6312 -0.6 1.50291
              }
            }
          }
        }
      }
    }
  }
  JOINT LeftUpLeg
  {
    OFFSET 8.9458 -8.66707 0.101652
    CHANNELS 3 Zrotation Xrotation Yrotation
    JOINT LeftLeg
    {
      OFFSET 0 -44.4227 1.3727
      CHANNELS 3 Zrotation Xrotation Yrotation
      JOINT LeftFoot
      {
        OFFSET -0.253549 -42.0924 -1.46059
        CHANNELS 3 Zrotation Xrotation Yrotation
        JOINT LeftToes
        {
          OFFSET -0.04 -4.41509 8.4991
          CHANNELS 3 Zrotation Xrotation Yrotation
          End Site
          {
            OFFSET 0.08 -0.047448 9.77979
          }
        }
      }
    }
  }
}
MOTION
Frames:	7
Frame Time:	0.0166667
112.667 101.931 -48.5519 2.04594 -2.64069 -95.0026 -9.71961 -6.08584 -0.260206 2.26181 40.3058 -3.23769 7.74513 -16.6783 0.488546 0.0462048 0.000533403 0.662642 -0.826944 4.89041 5.80992 -3.29087 9.598 12.2524 -10.914 -5.70504 8.41111 5.96354e-016 -1.78906e-015 -0 -69.4498 -53.5491 -14.2415 -42.7257 57.7632 -82.9579 17.7531 13.7202 -36.4145 13.9727 3.07116 15.6388 84.6043 -35.8481 44.367 -11.3394 61.8959 146.278 -10.5626 23.3104 -45.998 20.5171 -32.4279 10.7539 3.41204 36.4277 -22.5904 -30.0438 15.3882 5.3023 -1.33498e-009 1.56104e-007 -4.86177e-009 
112.1 102.453 -47.513 2.66317 -3.13394 -96.0495 -11.1643 -9.96543 -0.933475 2.43805 43.4797 -3.23111 7.38482 -10.0282 0.0267517 0.0462048 0.000533403 0.662642 -1.20665 4.8419 5.59804 -3.76421 9.41714 11.8206 -11.3386 -5.78068 10.1078 5.96354e-016 -1.2921e-015 3.18055e-015 -65.8282 -58.2766 -14.1454 -44.4408 58.2233 -80.7181 17.9833 13.6228 -36.4866 13.8816 3.14402 16.1517 84.0244 -35.6421 44.0029 -10.7201 62.3318 145.419 -11.0704 23.4477 -45.5598 20.5531 -32.8622 11.3896 2.67211 36.605 -19.7601 -28.1847 15.3098 4.96196 -1.33497e-009 1.56104e-007 -4.86177e-009 
111.473 102.777 -46.4615 3.16158 -3.42599 -97.0132 -12.3963 -13.8584 -2.03635 2.29026 46.6948 -3.01944 7.5011 -3.24586 -0.403396 0.0462048 0.000533403 0.662642 -1.54193 4.78396 5.29364 -3.97085 9.22547 11.1824 -11.8224 -5.54304 11.933 -9.93923e-016 2.85753e-015 -1.59028e-015 -62.3695 -64.2543 -14.6404 -46.7607 58.7971 -76.7883 18.7797 13.3584 -36.3069 13.8461 3.25269 16.8251 83.2616 -35.4416 43.6347 -10.4178 62.4492 144.889 -11.3845 23.5384 -45.3689 20.2322 -33.0017 11.3742 2.2871 36.9201 -17.1567 -25.56 13.5868 4.14928 -1.33497e-009 1.56104e-007 -4.86177e-009 
110.746 102.822 -45.3746 3.48277 -3.47124 -97.7265 -13.4053 -17.4492 -3.43793 1.95352 49.807 -2.75296 7.99293 2.82183 -0.817599 0.0462048 0.000533403 0.662642 -1.76826 4.73411 4.89841 -3.89169 9.07494 10.3465 -12.2901 -5.08172 13.7253 -3.97569e-016 -8.07563e-015 -1.59028e-015 -60.2124 -70.7645 -16.5798 -49.8431 59.216 -70.8851 19.8736 13.0553 -35.7543 13.857 3.38865 17.6122 82.3779 -35.2258 43.3402 -10.5316 62.1886 144.815 -11.4083 23.5642 -45.5489 19.506 -32.9105 10.7491 2.37998 37.4543 -15.2645 -22.9243 10.6416 3.21571 -1.33497e-009 1.56104e-007 -4.86177e-009 
109.9 102.568 -44.2219 3.58567 -3.27677 -98.0654 -14.2494 -20.481 -4.91515 1.78497 52.5923 -2.76084 8.59643 7.67428 -1.19711 0.0462048 0.000533403 0.662642 -1.84364 4.71897 4.43462 -3.56777 9.02224 9.36782 -12.6581 -4.51017 15.3122 1.98785e-016 2.01269e-015 -0 -62.1832 -76.8153 -22.4541 -53.5348 59.1334 -63.2723 20.894 12.8582 -34.8472 13.8843 3.5349 18.4393 81.5303 -34.9908 43.2595 -11.0794 61.5911 145.192 -11.111 23.5174 -46.1427 18.3803 -32.6922 9.70757 3.06283 38.2737 -14.488 -20.8714 7.18322 2.45064 -1.33498e-009 1.56104e-007 -4.86177e-009 
108.958 102.048 -42.9796 3.44918 -2.91728 -97.9903 -15.0085 -22.7575 -6.22961 2.13873 54.7197 -3.37956 9.05078 11.2959 -1.49757 0.0462048 0.000533403 0.662642 -1.78736 4.76957 3.94987 -3.09296 9.11581 8.35322 -12.8607 -3.94347 16.5393 4.96962e-016 -2.05618e-015 -0 -74.6211 -81.2641 -38.2233 -57.3922 58.2536 -54.7722 21.5033 12.838 -33.8596 13.8685 3.66463 19.2135 80.9661 -34.76 43.6037 -11.9921 60.8328 145.866 -10.5588 23.4064 -47.0712 16.9534 -32.5074 8.53719 4.3368 39.4819 -15.0499 -19.7077 3.96185 1.98455 -1.33498e-009 1.56104e-007 -4.86176e-009 
107.962 101.321 -41.6389 3.08088 -2.52741 -97.5642 -15.7373 -24.1678 -7.18533 3.06555 55.8894 -4.6867 9.22119 13.9024 -1.68142 0.0462048 0.000533403 0.662642 -1.68339 4.90823 3.51411 -2.59126 9.3797 7.44937 -12.873 -3.48233 17.2972 2.48481e-016 -5.31128e-015 -3.97569e-016 -100.806 -82.7744 -66.7956 -60.8964 56.4681 -46.5052 21.4931 12.9627 -33.2549 13.7236 3.74332 19.8372 80.9833 -34.5895 44.6327 -13.1582 60.2317 146.57 -9.92724 23.2682 -48.1295 15.4019 -32.5631 7.52085 6.06063 41.2061 -16.9508 -19.5643 1.59358 1.8387 -1.33497e-009 1.56104e-007 -4.86177e-009 
